# xmcd
#
# Track frame offsets:
#	150
#	2098
#	11787
#	20800
#	37526
#	49023
#	63896
#	65149
#	81785
#	97391
#	116985
#	135804
#	146353
#	149151
#	159143
#	169572
#	180528
#	195822
#	209931
#	213544
#	221885
#	236323
#	250816
#	265172
#
# Disc length: 3685 seconds
#
# Revision: 1
# Processed by: cddbd v1.5.2PL0 Copyright (c) Steve Scherf et al.
# Submitted via: audiograbber 1.83.01
#
DISCID=5b0e6318
DTITLE=Various Artist - King of the Road: A Tribute to Roger Miller
DYEAR=2018
DGENRE=Country
TTITLE0=Roger Miller - Greatest Songwriter (Banter)
TTITLE1=Asleep At The Wheel feat. Huey Lewis - Chug-a-Lug
TTITLE2=Brad Paisley - Dang Me
TTITLE3=The Stellas - Leavin's Not the Only Way to Go
TTITLE4=Kacey Musgraves - Kansas City Star
TTITLE5=Rodney Crowell - World So Full of Love
TTITLE6=Roger Miller - Old Friends (Banter)
TTITLE7=Kris Kristofferson - Old Friends
TTITLE8=Mandy Barnett - Lock Stock and Teardrops
TTITLE9=Alison Krauss feat. The Cox Family - You Oughta Be Here With Me/I've Be
TTITLE9=en A Long Time Leaving
TTITLE10=Ronnie Dunn feat. The Blind Boys Of Alabama - The Crossing
TTITLE11=The Earls of Leicester feat. Shawn Camp - In The Summertime
TTITLE12=Roger Miller - Fiddle (Banter)
TTITLE13=Lyle Loverr - England Swings
TTITLE14=Roger Miller - You Can't Rollerskate in a Buffalo Herd
TTITLE15=Loretta Lynn - Half a Mind
TTITLE16=Shooter Jennings - Invitation to the Blues
TTITLE17=Dwight Yoakam - It Only Hurts Me When I Cry (Live)
TTITLE18=Roger Miller - Mouth Noises (Banter)
TTITLE19=Eric Church - Oo De Lally
TTITLE20=Emerson Hart feat. Jon Randall - Engine, Engine #9
TTITLE21=Flatt Lonesome - When Two Worlds Collide
TTITLE22=Cake - Reincarnation
TTITLE23=Dean Miller feat. The McCrary Sisters - You Can't Do Me This Way
EXTD=
EXTT0=
EXTT1=
EXTT2=
EXTT3=
EXTT4=
EXTT5=
EXTT6=
EXTT7=
EXTT8=
EXTT9=
EXTT10=
EXTT11=
EXTT12=
EXTT13=
EXTT14=
EXTT15=
EXTT16=
EXTT17=
EXTT18=
EXTT19=
EXTT20=
EXTT21=
EXTT22=
EXTT23=
PLAYORDER=
